# xmcd
#
# Track frame offsets:
#	150
#	13106
#	29333
#	43467
#	58854
#	76388
#	90955
#	107283
#	122654
#	140307
#	156139
#	167020
#	182071
#	199540
#	214814
#	230224
#	245675
#	259377
#	272451
#
# Disc length: 3845 seconds
#
# Revision: 1
# Processed by: cddbd v1.5.2PL0 Copyright (c) Steve Scherf et al.
# Submitted via: audiograbber 1.83.01
#
DISCID=080f0313
DTITLE=Various Artist - Hott Country 132 - February 2007
DYEAR=2007
DGENRE=Country
TTITLE0=Blaine Larsen - I Wish That I Could Fall In Love Today
TTITLE1=Blake Shelton - Don't Make Me
TTITLE2=Eric Church - Guys Like Me
TTITLE3=Rascal Flatts - Stand
TTITLE4=Lonestar - Nothing To Prove
TTITLE5=Montgomery Gentry - Lucky Man
TTITLE6=Bob Seger and Paty Loveless - The Answer's In The Question
TTITLE7=Corb Lund Band - The Truth Comes Out
TTITLE8=Kellie Pickler - I Wonder
TTITLE9=Cross Canadian Ragweed - Late Last Night
TTITLE10=Liam Frost And The Slowdown Family - She Painted Pictures
TTITLE11=Ronnie Milsap - You Don't Know My Love
TTITLE12=Emerson Drive - Moments
TTITLE13=Sarah Buxton - That Kind Of Day
TTITLE14=Johnny Reid - Love Sweet Love
TTITLE15=Cole Dreggs and The Lonesome - I Got More
TTITLE16=Willie Nelson - $1000 Wedding
TTITLE17=Seth Lakeman - Lady Of The Sea
TTITLE18=Alabama - Feels So Right (1981)
EXTD=
EXTT0=
EXTT1=
EXTT2=
EXTT3=
EXTT4=
EXTT5=
EXTT6=
EXTT7=
EXTT8=
EXTT9=
EXTT10=
EXTT11=
EXTT12=
EXTT13=
EXTT14=
EXTT15=
EXTT16=
EXTT17=
EXTT18=
PLAYORDER=
